<svg aria-hidden="true" style="position: absolute; width: 0; height: 0; overflow: hidden;" version="1.1" xmlns="http://www.w3.org/2000/svg" xmlns:xlink="http://www.w3.org/1999/xlink">
<defs>
<symbol id="icon-arrow-down" viewBox="0 0 32 32">
<path stroke-linejoin="round" stroke-linecap="round" stroke-miterlimit="4" stroke-width="1.7778" d="M15.053 23.213l-11.053-11.053 3.773-3.773 8.227 8.227 8.227-8.227 3.773 3.76-11.053 11.067c-0.242 0.244-0.577 0.394-0.947 0.394s-0.705-0.151-0.947-0.394l-0-0z"></path>
</symbol>
<symbol id="icon-arrow-left" viewBox="0 0 24 24">
<path d="M15.707 17.293l-5.293-5.293 5.293-5.293c0.391-0.391 0.391-1.024 0-1.414s-1.024-0.391-1.414 0l-6 6c-0.391 0.391-0.391 1.024 0 1.414l6 6c0.391 0.391 1.024 0.391 1.414 0s0.391-1.024 0-1.414z"></path>
</symbol>
<symbol id="icon-arrow-right" viewBox="0 0 24 24">
<path d="M9.707 18.707l6-6c0.391-0.391 0.391-1.024 0-1.414l-6-6c-0.391-0.391-1.024-0.391-1.414 0s-0.391 1.024 0 1.414l5.293 5.293-5.293 5.293c-0.391 0.391-0.391 1.024 0 1.414s1.024 0.391 1.414 0z"></path>
</symbol>
<symbol id="icon-close-btn" viewBox="0 0 32 32">
<path d="M23.733 10.304l-1.504-1.504-5.963 5.963-5.963-5.963-1.504 1.504 5.963 5.963-5.963 5.963 1.504 1.504 5.963-5.963 5.963 5.963 1.504-1.504-5.963-5.963 5.963-5.963z"></path>
</symbol>
<symbol id="icon-arrow-down" viewBox="0 0 32 32">
<path stroke-linejoin="round" stroke-linecap="round" stroke-miterlimit="4" stroke-width="1.7778" d="M15.053 23.213l-11.053-11.053 3.773-3.773 8.227 8.227 8.227-8.227 3.773 3.76-11.053 11.067c-0.242 0.244-0.577 0.394-0.947 0.394s-0.705-0.151-0.947-0.394l-0-0z"></path>
</symbol>
</defs>
</svg>
